HIERARCHY
ROOT pelvis
{
  OFFSET 0 0 0
  CHANNELS 6 Xposition Yposition Zposition Zrotation Xrotation Yrotation
  JOINT pelvis_right_femur
  {
    OFFSET -11.43119 -3.542788 0.2090856
    CHANNELS 3 Zrotation Xrotation Yrotation
    JOINT right_femur_tibia
    {
      OFFSET -1.028693 -40.73281 5
      CHANNELS 3 Zrotation Xrotation Yrotation
      JOINT right_tibia_foot
      {
        OFFSET -0.5013517 -42.05707 -5
        CHANNELS 3 Zrotation Xrotation Yrotation
        End Site
        {
          OFFSET 0 -5 10
        }
      }
    }
  }
  JOINT pelvis_left_femur
  {
    OFFSET 11.43119 -3.542788 0.2090856
    CHANNELS 3 Zrotation Xrotation Yrotation
    JOINT left_femur_tibia
    {
      OFFSET 1.028693 -40.73281 5
      CHANNELS 3 Zrotation Xrotation Yrotation
      JOINT left_tibia_foot
      {
        OFFSET 0.3200228 -42.98253 -5
        CHANNELS 3 Zrotation Xrotation Yrotation
        End Site
        {
          OFFSET 0 -5 10
        }
      }
    }
  }
  JOINT pelvis_spine1
  {
    OFFSET 0 8.64413 -3.209807
    CHANNELS 3 Zrotation Xrotation Yrotation
    JOINT spine1
    {
      OFFSET 0 29.53957 -1.762685
      CHANNELS 3 Zrotation Xrotation Yrotation
      JOINT spine2
      {
        OFFSET 0 16.36153 -0.1422377
        CHANNELS 3 Zrotation Xrotation Yrotation
        JOINT neck
        {
          OFFSET 0 11.60093 5
          CHANNELS 3 Zrotation Xrotation Yrotation
          End Site
          {
            OFFSET 0 20 0
          }
        }
      }
      JOINT right_manubrium
      {
        OFFSET -4.671311 15.89868 4
        CHANNELS 3 Zrotation Xrotation Yrotation
        JOINT right_clavicle
        {
          OFFSET -13.601 1.573642 -2.74176
          CHANNELS 3 Zrotation Xrotation Yrotation
          JOINT right_humerus
          {
            OFFSET -0.06331682 -27.72702 2.252146
            CHANNELS 3 Zrotation Xrotation Yrotation
            JOINT right_radius
            {
              OFFSET -0.5696302 -23.92083 0.4042105
              CHANNELS 3 Zrotation Xrotation Yrotation
              End Site
              {
                OFFSET 0 -15 0
              }
            }
          }
        }
      }
      JOINT left_manubrium
      {
        OFFSET 4.671311 15.89868 4
        CHANNELS 3 Zrotation Xrotation Yrotation
        JOINT left_clavicle
        {
          OFFSET 13.601 1.573642 -2.74176
          CHANNELS 3 Zrotation Xrotation Yrotation
          JOINT left_humerus
          {
            OFFSET 0.000209614 -29.01858 1.101395
            CHANNELS 3 Zrotation Xrotation Yrotation
            JOINT left_radius
            {
              OFFSET -0.2288314 -24.59216 1.790347
              CHANNELS 3 Zrotation Xrotation Yrotation
              End Site
              {
                OFFSET 0 -15 0
              }
            }
          }
        }
      }
    }
  }
}
MOTION
Frames: 9
Frame Time: 0.0416666666667
0 48.26591 0 -3.550832 -19.19571 -1.016721 -54.79029 -60.69799 -53.82758 -180 85.5267 -180 5.617923 5.39705 -1.393645 68.69495 -52.11106 64.36769 -180 80.29204 -180 -4.659383 3.277145 -19.41625 -0.3053104 21.89666 1.143851 7.345597 14.4071 -9.633568 -11.84034 9.950888 5.046367 8.912377 -30.51982 -2.272453 21.5953 -9.470494 22.7695 -62.97352 -27.729 13.22322 0 -72.68867 0 1.34635 -12.76208 25.29534 -28.27282 -30.79238 -4.515095 50.81086 -22.99505 -26.33145 0 -77.37737 0 -14.94939 22.40503 -41.46348
0.0242434 48.18055 0.008518223 -3.509315 -19.15179 -0.8973527 -54.82495 -60.76032 -53.82003 -180 85.52191 -180 5.614992 5.398587 -1.40364 68.76786 -52.08361 64.49032 -180 80.27256 -180 -4.664794 3.270429 -19.42961 -0.367037 21.89741 1.056093 7.517297 14.35593 -9.730311 -11.9726 9.963147 5.10914 8.906708 -30.5378 -2.306309 22.05714 -10.38463 22.49581 -63.31091 -27.13561 11.69224 0 -71.99903 0 0.3800773 -13.2538 24.64011 -28.29113 -30.84097 -4.323352 50.83275 -22.90177 -26.3023 0 -77.52466 0 -14.93742 22.37133 -41.4545
0.07702953 48.09375 0.05484594 -3.478579 -19.04755 -0.8813528 -54.91009 -60.92778 -53.82234 -180 85.50472 -180 5.601572 5.414363 -1.413904 68.92219 -51.99963 64.73141 -180 80.21556 -180 -4.687917 3.240075 -19.44503 -0.4307497 21.8946 0.8684849 7.680927 14.22625 -9.827206 -12.22199 9.983629 5.297884 8.881545 -30.55476 -2.244758 22.69198 -12.09777 22.20926 -64.0559 -26.29849 9.147666 0 -70.13042 0 -1.028215 -13.69954 23.52123 -28.29861 -30.89663 -3.986091 50.8972 -22.70758 -26.23305 0 -77.80914 0 -14.91575 22.30355 -41.44352
0.1532429 48.0146 0.148523 -3.426315 -18.88002 -0.9913857 -55.09002 -61.2202 -53.88877 -180 85.46564 -180 5.571248 5.442492 -1.407566 69.13247 -51.8471 65.05748 -180 80.12058 -180 -4.738239 3.175156 -19.44349 -0.4573117 21.87495 0.6184923 7.664929 14.04347 -9.833887 -12.541 9.984724 5.59398 8.848173 -30.56922 -2.078902 23.14243 -14.45095 22.19549 -65.28078 -25.40978 6.085965 0 -66.53307 0 -2.43053 -13.74942 22.01498 -28.26442 -30.94446 -3.597331 51.04126 -22.41736 -26.12273 0 -78.21443 0 -14.89279 22.19462 -41.43038
0.2294872 47.95299 0.2856585 -3.326113 -18.66497 -1.216634 -55.38868 -61.60828 -54.07478 -180 85.40685 -180 5.519946 5.473816 -1.366067 69.34337 -51.64698 65.3892 -180 80.00511 -180 -4.817837 3.074221 -19.39941 -0.39737 21.82354 0.3691418 7.33384 13.87462 -9.686279 -12.87222 9.929197 5.935589 8.814527 -30.58943 -1.853859 23.05313 -17.07974 22.66447 -66.95705 -24.66755 3.208296 0 -61.04184 0 -3.275257 -13.16536 20.31935 -28.17357 -30.98412 -3.28218 51.289 -22.06418 -25.97752 0 -78.68689 0 -14.87905 22.04036 -41.41305
0.2826955 47.90653 0.4438642 -3.187685 -18.43517 -1.524165 -55.78318 -62.00271 -54.4104 -180 85.35191 -180 5.447266 5.497244 -1.275036 69.48675 -51.46577 65.61805 -180 79.9049 -180 -4.917631 2.949542 -19.28401 -0.1961072 21.73238 0.179031 6.677438 13.81237 -9.397267 -13.1998 9.780669 6.246804 8.763815 -30.63438 -1.656342 22.24431 -19.53816 23.6037 -68.9244 -24.21 1.154972 0 -54.12135 0 -3.115431 -11.97518 18.6963 -28.04854 -31.04334 -3.136043 51.63246 -21.70035 -25.80286 0 -79.14738 0 -14.88144 21.8368 -41.3874
0.2968731 47.86959 0.6013437 -3.003082 -18.21318 -1.876265 -56.28258 -62.35972 -54.91506 -180 85.30728 -180 5.357505 5.525074 -1.122897 69.52731 -51.34128 65.70431 -180 79.84201 -180 -5.03005 2.815807 -19.08654 0.1009715 21.60555 0.08376143 5.798781 13.87772 -9.018127 -13.54203 9.543001 6.505127 8.665226 -30.6943 -1.518747 20.83251 -21.57126 24.83945 -70.95345 -24.08948 0.1592424 0 -46.60659 0 -1.876806 -10.42957 17.29686 -27.91157 -31.14409 -3.164273 52.0365 -21.35671 -25.6016 0 -79.53459 0 -14.89883 21.5852 -41.34961
0.2681773 47.83972 0.748709 -2.756742 -18.01032 -2.252125 -56.92069 -62.67745 -55.59654 -180 85.26263 -180 5.257674 5.584649 -0.9022096 69.4564 -51.27804 65.66351 -180 79.82389 -180 -5.150717 2.685092 -18.81376 0.3952698 21.45522 0.1002307 4.854015 14.03769 -8.606508 -13.93449 9.24425 6.731631 8.48291 -30.74179 -1.421952 19.10862 -23.07796 26.16512 -72.79999 -24.2977 0.1620799 0 -39.41128 0 0.249173 -8.843058 16.17278 -27.78483 -31.29303 -3.320704 52.44997 -21.04434 -25.37995 0 -79.80789 0 -14.92592 21.29048 -41.29703
0.2144538 47.81618 0.8873058 -2.44586 -17.82796 -2.642451 -57.71959 -62.98014 -56.42455 -180 85.19671 -180 5.15556 5.699875 -0.6200499 69.29192 -51.24457 65.55309 -180 79.84129 -180 -5.278108 2.56065 -18.49591 0.6205151 21.29633 0.2213053 3.98926 14.22709 -8.193304 -14.4129 8.914591 6.979661 8.189111 -30.75556 -1.299565 17.43128 -24.11732 27.45245 -74.29801 -24.76564 0.8722831 0 -33.14225 0 2.899037 -7.432472 15.26532 -27.70117 -31.46697 -3.55233 52.81454 -20.75704 -25.16119 0 -79.95697 0 -14.95809 20.96004 -41.22985
